<svg xmlns="http://www.w3.org/2000/svg" xmlns:xlink="http://www.w3.org/1999/xlink" width="180" zoomAndPan="magnify" viewBox="0 0 135 37.5" height="50" preserveAspectRatio="xMidYMid meet" version="1.0"><defs><g/><clipPath id="ae614ada15"><path d="M 0.886719 0 L 134.109375 0 L 134.109375 37.007812 L 0.886719 37.007812 Z M 0.886719 0 " clip-rule="nonzero"/></clipPath><clipPath id="25a7c278ab"><path d="M 30.710938 3.722656 L 60.316406 3.722656 L 60.316406 34 L 30.710938 34 Z M 30.710938 3.722656 " clip-rule="nonzero"/></clipPath><clipPath id="7a284baff0"><path d="M 33 9 L 113 9 L 113 37.007812 L 33 37.007812 Z M 33 9 " clip-rule="nonzero"/></clipPath></defs><g clip-path="url(#ae614ada15)"><path fill="#ffffff" d="M 0.886719 0 L 134.113281 0 L 134.113281 37.007812 L 0.886719 37.007812 Z M 0.886719 0 " fill-opacity="1" fill-rule="nonzero"/><path fill="#ffffff" d="M 0.886719 0 L 134.113281 0 L 134.113281 37.007812 L 0.886719 37.007812 Z M 0.886719 0 " fill-opacity="1" fill-rule="nonzero"/></g><g clip-path="url(#25a7c278ab)"><path fill="#ff5722" d="M 30.976562 18.375 C 30.976562 26.46875 37.550781 33.042969 45.644531 33.042969 L 60.316406 33.042969 L 60.316406 18.375 C 60.316406 10.277344 53.742188 3.703125 45.644531 3.703125 C 37.550781 3.703125 30.976562 10.277344 30.976562 18.375 Z M 30.976562 18.375 " fill-opacity="1" fill-rule="evenodd"/></g><g clip-path="url(#7a284baff0)"><path stroke-linecap="butt" transform="matrix(0.17829, 0, 0, 0.17829, 40.863335, 12.096176)" fill="none" stroke-linejoin="miter" d="M 33.89369 57.301644 L 11.918463 57.301644 L 15.226798 38.284199 L 79.487357 38.284199 L 76.157113 57.301644 L 54.159977 57.301644 L 43.424322 117.990955 L 23.223765 117.990955 Z M 97.343598 38.284199 L 144.339473 38.284199 L 141.009229 57.082549 L 114.257731 57.082549 L 112.220148 68.606945 L 131.500507 68.606945 L 128.389358 86.485096 L 109.130909 86.485096 L 106.87423 99.192605 L 134.239194 99.192605 L 130.887041 117.990955 L 83.29961 117.990955 Z M 169.929767 119.765625 C 167.322537 119.765625 164.737216 119.458892 162.195714 118.823516 C 159.676122 118.188141 157.331806 117.224123 155.184675 115.931462 C 153.015634 114.616892 151.131417 112.99559 149.510115 111.045644 C 147.888812 109.095699 146.683789 106.773292 145.916957 104.078424 L 162.436719 93.255131 C 163.159732 95.402262 164.167569 97.176932 165.46023 98.55723 C 166.774799 99.937528 168.659016 100.616723 171.13479 100.616723 C 173.654382 100.616723 175.845332 99.784162 177.66382 98.11904 C 179.482309 96.453918 180.643512 94.241059 181.125521 91.480462 L 187.084905 57.301644 L 167.432084 57.301644 L 170.784238 38.284199 L 210.637616 38.284199 L 201.106984 92.510208 C 200.38397 96.651104 199.113219 100.375718 197.250912 103.727872 C 195.388605 107.058115 193.088107 109.92826 190.32751 112.316395 C 187.588823 114.660711 184.499584 116.501109 180.994064 117.815679 C 177.510454 119.130249 173.829658 119.765625 169.929767 119.765625 Z M 257.63349 37.079177 L 273.123506 37.079177 L 289.402263 117.990955 L 268.347235 117.990955 L 266.441109 106.203645 L 240.018253 106.203645 L 233.949322 117.990955 L 212.039824 117.990955 Z M 263.702421 89.552426 L 260.131173 67.292375 L 248.584867 89.552426 Z M 318.322801 38.284199 L 338.545269 38.284199 L 327.853433 98.97351 L 354.035284 98.97351 L 350.683131 117.990955 L 304.300722 117.990955 Z M 318.322801 38.284199 " stroke="#ffffff" stroke-width="8.925075" stroke-opacity="1" stroke-miterlimit="4"/></g><g fill="#ff5722" fill-opacity="1"><g transform="translate(40.863335, 33.134425)"><g><path d="M 6.046875 -10.828125 L 2.125 -10.828125 L 2.71875 -14.21875 L 14.171875 -14.21875 L 13.578125 -10.828125 L 9.65625 -10.828125 L 7.75 0 L 4.140625 0 Z M 6.046875 -10.828125 "/></g></g></g><g fill="#ff5722" fill-opacity="1"><g transform="translate(54.229761, 33.134425)"><g><path d="M 3.984375 -14.21875 L 12.375 -14.21875 L 11.78125 -10.859375 L 7 -10.859375 L 6.640625 -8.8125 L 10.078125 -8.8125 L 9.53125 -5.625 L 6.09375 -5.625 L 5.6875 -3.359375 L 10.5625 -3.359375 L 9.96875 0 L 1.484375 0 Z M 3.984375 -14.21875 "/></g></g></g><g fill="#ff5722" fill-opacity="1"><g transform="translate(66.535361, 33.134425)"><g><path d="M 4.625 0.3125 C 4.15625 0.3125 3.691406 0.253906 3.234375 0.140625 C 2.785156 0.0351562 2.367188 -0.128906 1.984375 -0.359375 C 1.609375 -0.597656 1.273438 -0.890625 0.984375 -1.234375 C 0.691406 -1.585938 0.476562 -2.003906 0.34375 -2.484375 L 3.28125 -4.40625 C 3.414062 -4.03125 3.597656 -3.71875 3.828125 -3.46875 C 4.066406 -3.21875 4.40625 -3.09375 4.84375 -3.09375 C 5.289062 -3.09375 5.675781 -3.238281 6 -3.53125 C 6.332031 -3.832031 6.539062 -4.234375 6.625 -4.734375 L 7.6875 -10.828125 L 4.1875 -10.828125 L 4.78125 -14.21875 L 11.875 -14.21875 L 10.1875 -4.546875 C 10.0625 -3.804688 9.832031 -3.140625 9.5 -2.546875 C 9.164062 -1.953125 8.753906 -1.441406 8.265625 -1.015625 C 7.773438 -0.585938 7.21875 -0.257812 6.59375 -0.03125 C 5.976562 0.195312 5.320312 0.3125 4.625 0.3125 Z M 4.625 0.3125 "/></g></g></g><g fill="#ff5722" fill-opacity="1"><g transform="translate(78.565145, 33.134425)"><g><path d="M 8.234375 -14.421875 L 10.984375 -14.421875 L 13.890625 0 L 10.140625 0 L 9.796875 -2.09375 L 5.09375 -2.09375 L 4.015625 0 L 0.109375 0 Z M 9.3125 -5.078125 L 8.671875 -9.046875 L 6.625 -5.078125 Z M 9.3125 -5.078125 "/></g></g></g><g fill="#ff5722" fill-opacity="1"><g transform="translate(93.628892, 33.134425)"><g><path d="M 3.984375 -14.21875 L 7.59375 -14.21875 L 5.6875 -3.390625 L 10.359375 -3.390625 L 9.765625 0 L 1.484375 0 Z M 3.984375 -14.21875 "/></g></g></g><g fill="#272e38" fill-opacity="1"><g transform="translate(60.860037, 17.657708)"><g><path d="M 1 -3.53125 L 2.265625 -3.53125 C 2.523438 -3.53125 2.757812 -3.492188 2.96875 -3.421875 C 3.175781 -3.347656 3.351562 -3.238281 3.5 -3.09375 C 3.65625 -2.957031 3.773438 -2.789062 3.859375 -2.59375 C 3.941406 -2.394531 3.984375 -2.175781 3.984375 -1.9375 C 3.984375 -1.664062 3.929688 -1.410156 3.828125 -1.171875 C 3.722656 -0.941406 3.582031 -0.738281 3.40625 -0.5625 C 3.226562 -0.394531 3.019531 -0.257812 2.78125 -0.15625 C 2.539062 -0.0507812 2.285156 0 2.015625 0 L 0.375 0 Z M 2.078125 -0.84375 C 2.222656 -0.84375 2.351562 -0.867188 2.46875 -0.921875 C 2.582031 -0.984375 2.679688 -1.0625 2.765625 -1.15625 C 2.847656 -1.257812 2.910156 -1.367188 2.953125 -1.484375 C 3.003906 -1.609375 3.03125 -1.738281 3.03125 -1.875 C 3.03125 -1.988281 3.007812 -2.09375 2.96875 -2.1875 C 2.9375 -2.289062 2.882812 -2.378906 2.8125 -2.453125 C 2.738281 -2.535156 2.648438 -2.59375 2.546875 -2.625 C 2.453125 -2.664062 2.347656 -2.6875 2.234375 -2.6875 L 1.75 -2.6875 L 1.421875 -0.84375 Z M 2.078125 -0.84375 "/></g></g></g><g fill="#272e38" fill-opacity="1"><g transform="translate(65.009468, 17.657708)"><g><path d="M 1 -3.53125 L 1.890625 -3.53125 L 1.265625 0 L 0.375 0 Z M 1 -3.53125 "/></g></g></g><g fill="#272e38" fill-opacity="1"><g transform="translate(66.962764, 17.657708)"><g><path d="M 2.1875 0.078125 C 1.9375 0.078125 1.707031 0.0390625 1.5 -0.03125 C 1.289062 -0.113281 1.109375 -0.222656 0.953125 -0.359375 C 0.796875 -0.503906 0.675781 -0.675781 0.59375 -0.875 C 0.507812 -1.082031 0.46875 -1.3125 0.46875 -1.5625 C 0.46875 -1.84375 0.519531 -2.109375 0.625 -2.359375 C 0.726562 -2.609375 0.867188 -2.828125 1.046875 -3.015625 C 1.222656 -3.203125 1.429688 -3.347656 1.671875 -3.453125 C 1.921875 -3.566406 2.191406 -3.625 2.484375 -3.625 C 2.773438 -3.625 3.050781 -3.554688 3.3125 -3.421875 C 3.570312 -3.296875 3.78125 -3.109375 3.9375 -2.859375 L 3.203125 -2.3125 C 3.109375 -2.445312 2.992188 -2.546875 2.859375 -2.609375 C 2.734375 -2.679688 2.585938 -2.71875 2.421875 -2.71875 C 2.273438 -2.71875 2.140625 -2.6875 2.015625 -2.625 C 1.890625 -2.570312 1.78125 -2.492188 1.6875 -2.390625 C 1.601562 -2.285156 1.535156 -2.164062 1.484375 -2.03125 C 1.441406 -1.90625 1.421875 -1.769531 1.421875 -1.625 C 1.421875 -1.488281 1.441406 -1.363281 1.484375 -1.25 C 1.523438 -1.144531 1.585938 -1.054688 1.671875 -0.984375 C 1.753906 -0.910156 1.847656 -0.851562 1.953125 -0.8125 C 2.066406 -0.78125 2.1875 -0.765625 2.3125 -0.765625 C 2.40625 -0.765625 2.492188 -0.769531 2.578125 -0.78125 C 2.660156 -0.800781 2.738281 -0.835938 2.8125 -0.890625 L 2.90625 -1.390625 L 2.34375 -1.390625 L 2.46875 -2.078125 L 3.921875 -2.078125 L 3.640625 -0.4375 C 3.441406 -0.269531 3.21875 -0.140625 2.96875 -0.046875 C 2.71875 0.0351562 2.457031 0.078125 2.1875 0.078125 Z M 2.1875 0.078125 "/></g></g></g><g fill="#272e38" fill-opacity="1"><g transform="translate(71.075242, 17.657708)"><g><path d="M 1 -3.53125 L 1.890625 -3.53125 L 1.265625 0 L 0.375 0 Z M 1 -3.53125 "/></g></g></g><g fill="#272e38" fill-opacity="1"><g transform="translate(73.028538, 17.657708)"><g><path d="M 1.5 -2.6875 L 0.53125 -2.6875 L 0.671875 -3.53125 L 3.53125 -3.53125 L 3.375 -2.6875 L 2.40625 -2.6875 L 1.921875 0 L 1.03125 0 Z M 1.5 -2.6875 "/></g></g></g><g fill="#272e38" fill-opacity="1"><g transform="translate(76.354419, 17.657708)"><g><path d="M 2.046875 -3.59375 L 2.734375 -3.59375 L 3.453125 0 L 2.53125 0 L 2.4375 -0.515625 L 1.265625 -0.515625 L 1 0 L 0.03125 0 Z M 2.3125 -1.265625 L 2.15625 -2.25 L 1.640625 -1.265625 Z M 2.3125 -1.265625 "/></g></g></g><g fill="#272e38" fill-opacity="1"><g transform="translate(80.102634, 17.657708)"><g><path d="M 1 -3.53125 L 1.890625 -3.53125 L 1.421875 -0.84375 L 2.578125 -0.84375 L 2.421875 0 L 0.375 0 Z M 1 -3.53125 "/></g></g></g><g fill="#272e38" fill-opacity="1"><g transform="translate(82.95339, 17.657708)"><g/></g></g><g fill="#272e38" fill-opacity="1"><g transform="translate(84.43156, 17.657708)"><g><path d="M 0.625 -3.53125 L 1.546875 -3.53125 L 1.84375 -1.640625 L 2.9375 -3.53125 L 3.453125 -3.53125 L 3.890625 -1.625 L 4.859375 -3.53125 L 5.796875 -3.53125 L 3.9375 0.046875 L 3.40625 0.046875 L 2.9375 -2.09375 L 1.75 0.046875 L 1.21875 0.046875 Z M 0.625 -3.53125 "/></g></g></g><g fill="#272e38" fill-opacity="1"><g transform="translate(89.948298, 17.657708)"><g><path d="M 2.1875 0.078125 C 1.945312 0.078125 1.71875 0.0390625 1.5 -0.03125 C 1.289062 -0.113281 1.109375 -0.226562 0.953125 -0.375 C 0.804688 -0.53125 0.6875 -0.707031 0.59375 -0.90625 C 0.507812 -1.113281 0.46875 -1.34375 0.46875 -1.59375 C 0.46875 -1.863281 0.519531 -2.117188 0.625 -2.359375 C 0.726562 -2.609375 0.867188 -2.828125 1.046875 -3.015625 C 1.222656 -3.203125 1.429688 -3.347656 1.671875 -3.453125 C 1.921875 -3.566406 2.191406 -3.625 2.484375 -3.625 C 2.722656 -3.625 2.945312 -3.582031 3.15625 -3.5 C 3.363281 -3.414062 3.539062 -3.300781 3.6875 -3.15625 C 3.84375 -3.007812 3.960938 -2.832031 4.046875 -2.625 C 4.140625 -2.425781 4.1875 -2.195312 4.1875 -1.9375 C 4.1875 -1.664062 4.132812 -1.40625 4.03125 -1.15625 C 3.925781 -0.914062 3.785156 -0.703125 3.609375 -0.515625 C 3.429688 -0.335938 3.21875 -0.191406 2.96875 -0.078125 C 2.726562 0.0234375 2.46875 0.078125 2.1875 0.078125 Z M 2.234375 -0.8125 C 2.390625 -0.8125 2.523438 -0.84375 2.640625 -0.90625 C 2.765625 -0.96875 2.867188 -1.046875 2.953125 -1.140625 C 3.035156 -1.234375 3.101562 -1.34375 3.15625 -1.46875 C 3.207031 -1.601562 3.234375 -1.738281 3.234375 -1.875 C 3.234375 -2 3.210938 -2.113281 3.171875 -2.21875 C 3.128906 -2.320312 3.070312 -2.410156 3 -2.484375 C 2.925781 -2.554688 2.835938 -2.613281 2.734375 -2.65625 C 2.640625 -2.695312 2.53125 -2.71875 2.40625 -2.71875 C 2.257812 -2.71875 2.125 -2.6875 2 -2.625 C 1.882812 -2.570312 1.78125 -2.492188 1.6875 -2.390625 C 1.601562 -2.296875 1.535156 -2.179688 1.484375 -2.046875 C 1.441406 -1.921875 1.421875 -1.789062 1.421875 -1.65625 C 1.421875 -1.53125 1.441406 -1.414062 1.484375 -1.3125 C 1.523438 -1.207031 1.582031 -1.117188 1.65625 -1.046875 C 1.726562 -0.972656 1.8125 -0.914062 1.90625 -0.875 C 2.007812 -0.832031 2.117188 -0.8125 2.234375 -0.8125 Z M 2.234375 -0.8125 "/></g></g></g><g fill="#272e38" fill-opacity="1"><g transform="translate(94.298338, 17.657708)"><g><path d="M 1 -3.53125 L 2.046875 -3.53125 C 2.234375 -3.53125 2.398438 -3.503906 2.546875 -3.453125 C 2.691406 -3.398438 2.816406 -3.328125 2.921875 -3.234375 C 3.035156 -3.140625 3.117188 -3.023438 3.171875 -2.890625 C 3.234375 -2.753906 3.265625 -2.601562 3.265625 -2.4375 C 3.265625 -2.21875 3.207031 -2.007812 3.09375 -1.8125 C 2.976562 -1.613281 2.816406 -1.457031 2.609375 -1.34375 L 3.109375 0 L 2.109375 0 L 1.734375 -1.171875 L 1.46875 -1.171875 L 1.265625 0 L 0.375 0 Z M 1.90625 -1.9375 C 2.039062 -1.9375 2.148438 -1.976562 2.234375 -2.0625 C 2.316406 -2.15625 2.359375 -2.265625 2.359375 -2.390625 C 2.359375 -2.503906 2.320312 -2.59375 2.25 -2.65625 C 2.175781 -2.726562 2.070312 -2.765625 1.9375 -2.765625 L 1.765625 -2.765625 L 1.609375 -1.9375 Z M 1.90625 -1.9375 "/></g></g></g><g fill="#272e38" fill-opacity="1"><g transform="translate(97.835386, 17.657708)"><g><path d="M 1 -3.53125 L 1.890625 -3.53125 L 1.609375 -1.953125 L 2.890625 -3.53125 L 3.921875 -3.53125 L 2.5 -1.8125 L 3.3125 0 L 2.28125 0 L 1.5625 -1.65625 L 1.265625 0 L 0.375 0 Z M 1 -3.53125 "/></g></g></g><g fill="#272e38" fill-opacity="1"><g transform="translate(101.46218, 17.657708)"><g><path d="M 1.5 0.078125 C 1.351562 0.078125 1.210938 0.0546875 1.078125 0.015625 C 0.953125 -0.015625 0.832031 -0.0664062 0.71875 -0.140625 C 0.601562 -0.210938 0.503906 -0.300781 0.421875 -0.40625 C 0.335938 -0.519531 0.269531 -0.644531 0.21875 -0.78125 L 0.90625 -1.234375 C 0.957031 -1.085938 1.035156 -0.957031 1.140625 -0.84375 C 1.242188 -0.738281 1.378906 -0.6875 1.546875 -0.6875 C 1.640625 -0.6875 1.722656 -0.707031 1.796875 -0.75 C 1.867188 -0.800781 1.90625 -0.875 1.90625 -0.96875 C 1.90625 -1.050781 1.867188 -1.125 1.796875 -1.1875 C 1.734375 -1.25 1.625 -1.332031 1.46875 -1.4375 C 1.21875 -1.59375 1.03125 -1.753906 0.90625 -1.921875 C 0.789062 -2.085938 0.734375 -2.273438 0.734375 -2.484375 C 0.734375 -2.648438 0.765625 -2.800781 0.828125 -2.9375 C 0.890625 -3.070312 0.972656 -3.191406 1.078125 -3.296875 C 1.191406 -3.398438 1.328125 -3.476562 1.484375 -3.53125 C 1.640625 -3.59375 1.8125 -3.625 2 -3.625 C 2.5 -3.625 2.894531 -3.394531 3.1875 -2.9375 L 2.53125 -2.46875 C 2.46875 -2.570312 2.390625 -2.664062 2.296875 -2.75 C 2.203125 -2.832031 2.085938 -2.875 1.953125 -2.875 C 1.859375 -2.875 1.78125 -2.847656 1.71875 -2.796875 C 1.664062 -2.753906 1.640625 -2.691406 1.640625 -2.609375 C 1.640625 -2.515625 1.679688 -2.429688 1.765625 -2.359375 C 1.847656 -2.296875 1.953125 -2.222656 2.078125 -2.140625 C 2.335938 -1.992188 2.53125 -1.835938 2.65625 -1.671875 C 2.78125 -1.503906 2.84375 -1.3125 2.84375 -1.09375 C 2.84375 -0.914062 2.804688 -0.753906 2.734375 -0.609375 C 2.660156 -0.472656 2.5625 -0.351562 2.4375 -0.25 C 2.320312 -0.144531 2.179688 -0.0625 2.015625 0 C 1.847656 0.0507812 1.675781 0.078125 1.5 0.078125 Z M 1.5 0.078125 "/></g></g></g></svg>